<svg xmlns="http://www.w3.org/2000/svg" width="141" height="60" fill="none" viewBox="0 0 141 60">
    <path fill="#000" d="M30.323 58.372l-6.04-8.783V3.758h16.879l2.869 5.11H30.323v3.673h15.302l3.347 5.749H30.323v40.082z"/>
    <path fill="#000" d="M32.947 59.248V20.922h23.909l-2.391 5.749H39.323v3.194h14.026l-2.072 5.749H39.323v19.482l-6.376 4.152z"/>
    <path fill="#000" fill-rule="evenodd" d="M.383 16.175L16.163.525 22.06 3.72v28.585l-5.897-4.312v-5.908l-8.129-4.631-3.347 3.513-4.304-4.79zm15.62-6.148v6.388l-4.781-2.396 4.781-3.992z" clip-rule="evenodd"/>
    <path fill="#000" d="M77.841 11.986h-2.197l-.573-1.545H71.17l-.573 1.545h-2.197l3.507-9.118h2.428l3.507 9.118zM74.54 8.732L73.12 4.81 71.7 8.732h2.84zm6.08 3.254h-1.937V2.868h6.44v1.708H80.62V6.49h4.408V8.2h-4.408v3.786zm13.24 0h-2.238l-1.787-3.24h-1.42v3.24h-1.937V2.868h4.257c.937 0 1.683.273 2.238.82.555.547.832 1.253.832 2.119 0 .747-.2 1.353-.6 1.818-.391.465-.86.761-1.405.889l2.06 3.472zm-3.398-4.949c.392 0 .715-.11.97-.328.254-.228.381-.533.381-.916 0-.364-.127-.656-.382-.875-.255-.228-.578-.342-.969-.342h-2.046v2.461h2.046zm6.721 4.949h-1.937V2.868h1.937v9.118zm6.229.164c-1.392 0-2.552-.437-3.48-1.312-.919-.884-1.378-2.02-1.378-3.404 0-1.395.46-2.53 1.378-3.404.928-.875 2.088-1.313 3.48-1.313 1.701 0 2.965.743 3.793 2.229l-1.665.82c-.2-.383-.496-.697-.887-.944-.382-.255-.796-.382-1.241-.382-.828 0-1.515.282-2.061.847-.537.565-.805 1.28-.805 2.147 0 .865.268 1.58.805 2.146.546.565 1.233.848 2.061.848.445 0 .859-.123 1.241-.37.391-.255.687-.574.887-.957l1.665.807c-.846 1.495-2.11 2.242-3.793 2.242zm13.34-.164h-2.197l-.573-1.545h-3.902l-.574 1.545h-2.196l3.506-9.118h2.429l3.507 9.118zm-3.302-3.254L112.03 4.81l-1.419 3.923h2.838zM71.292 32.993h-1.938v-9.118h6.44v1.709h-4.502v1.913h4.407v1.71h-4.407v3.786zm7.795 0h-1.938v-9.118h1.938v9.118zm9.953 0h-1.87l-4.339-5.947v5.947h-1.937v-9.118h1.992l4.216 5.728v-5.728h1.938v9.118zm5.847 0h-1.951v-7.41h-2.661v-1.708h7.26v1.709h-2.648v7.41zm10.33 0h-6.44v-9.118h6.44v1.709h-4.503v1.913h4.408v1.71h-4.408v2.077h4.503v1.71zm5.936.164c-1.392 0-2.552-.437-3.48-1.312-.919-.884-1.378-2.019-1.378-3.404 0-1.395.459-2.53 1.378-3.404.928-.875 2.088-1.313 3.48-1.313 1.701 0 2.965.743 3.793 2.229l-1.665.82c-.2-.383-.495-.697-.887-.943-.382-.255-.796-.383-1.241-.383-.828 0-1.515.282-2.061.848-.536.565-.805 1.28-.805 2.146 0 .866.269 1.581.805 2.146.546.565 1.233.848 2.061.848.445 0 .859-.123 1.241-.37.392-.255.687-.574.887-.956l1.665.806c-.846 1.495-2.11 2.242-3.793 2.242zm13.133-.164h-1.951v-3.841h-4.298v3.841h-1.938v-9.118h1.938v3.581h4.298v-3.581h1.951v9.118zM71.292 54h-1.938v-9.118h6.44v1.709h-4.502v1.914h4.407v1.709h-4.407V54zm10.183.164c-1.383 0-2.525-.442-3.425-1.326-.892-.884-1.338-2.014-1.338-3.39 0-1.376.446-2.506 1.338-3.39.9-.884 2.042-1.326 3.425-1.326 1.373 0 2.506.446 3.397 1.34.9.883 1.351 2.009 1.351 3.376s-.45 2.497-1.35 3.39c-.892.884-2.025 1.326-3.398 1.326zm-2.006-2.57c.51.565 1.178.848 2.006.848.827 0 1.491-.283 1.992-.848.51-.565.764-1.28.764-2.146 0-.866-.255-1.581-.764-2.146-.5-.565-1.165-.848-1.992-.848-.837 0-1.51.283-2.02.848-.5.565-.75 1.28-.75 2.146 0 .866.254 1.581.764 2.146zm15.278 1.545c-.692.684-1.71 1.025-3.057 1.025-1.346 0-2.37-.341-3.07-1.025-.691-.693-1.037-1.622-1.037-2.789v-5.468h1.965v5.414c0 .656.186 1.18.56 1.572.372.383.9.574 1.582.574s1.206-.191 1.57-.574c.372-.392.559-.916.559-1.572v-5.414h1.978v5.468c0 1.167-.35 2.096-1.05 2.79zM105.75 54h-1.869l-4.34-5.946V54h-1.937v-9.118h1.992l4.216 5.728v-5.728h1.938V54zm5.397 0h-3.603v-9.118h3.589c1.428 0 2.588.42 3.48 1.258.9.838 1.35 1.936 1.35 3.294 0 1.377-.445 2.484-1.337 3.322-.891.83-2.051 1.244-3.479 1.244zm-.014-1.708c.873 0 1.565-.274 2.074-.82.519-.547.778-1.227.778-2.038 0-.829-.25-1.508-.751-2.037-.491-.537-1.187-.806-2.087-.806h-1.665v5.7h1.651zM124.721 54h-2.238l-1.788-3.24h-1.419V54h-1.937v-9.118h4.257c.937 0 1.683.273 2.238.82.555.547.832 1.253.832 2.12 0 .746-.2 1.353-.6 1.817-.392.465-.86.761-1.406.889L124.721 54zm-3.398-4.948c.391 0 .714-.11.969-.328.254-.228.382-.534.382-.916 0-.365-.128-.657-.382-.875-.255-.228-.578-.342-.969-.342h-2.047v2.46h2.047zM130.342 54h-1.937v-3.732l-3.493-5.386h2.21l2.252 3.65 2.251-3.65h2.197l-3.48 5.386V54z"/>
</svg>
