<svg xmlns="http://www.w3.org/2000/svg" width="141" height="36" fill="none" viewBox="0 0 141 36">
    <path fill="#322B31" d="M28.646 13.25h5.574V7.583h-5.574v5.667zM0 27.343h5.27v-5.668H0v5.668z"/>
    <path fill="#9C7161" d="M6.799 35.539h5.652V14.783H6.799v20.756zM21.465 35.539h5.653v-6.664h-5.653v6.664z"/>
    <path fill="#322B31" d="M0 13.25h19.937V7.583H0v5.667z"/>
    <path fill="#9C7161" d="M21.465 20.143h5.653V0h-5.653v20.143z"/>
    <path fill="#322B31" d="M13.98 27.343h20.24v-5.668H13.98v5.668zM61.828 22.07L59.3 15.886l-2.527 6.186h5.054zm-4.403-11.228h3.86l8.152 19.214h-4.37l-1.74-4.278H55.27l-1.734 4.278h-4.267l8.156-19.214zM80.799 20.244c1.033 0 1.826-.246 2.378-.737.275-.245.492-.55.635-.889.143-.34.21-.707.194-1.075v-.06c0-.908-.29-1.59-.87-2.042-.58-.454-1.386-.68-2.42-.682h-4.159v5.477l4.242.008zm-8.425-9.267h8.697c2.41 0 4.258.645 5.545 1.935 1.086 1.09 1.63 2.544 1.63 4.361v.055c0 1.544-.376 2.802-1.129 3.774-.76.979-1.783 1.72-2.948 2.14l4.647 6.814h-4.898l-4.077-6.103h-3.284v6.103h-4.185l.002-19.079zM92.213 30.054h4.185V10.98h-4.185v19.074zM110.324 30.382c-1.389.018-2.768-.233-4.063-.737-1.178-.46-2.25-1.155-3.153-2.043-.887-.884-1.585-1.941-2.051-3.105-.499-1.25-.749-2.584-.735-3.93v-.054c-.017-1.94.542-3.84 1.607-5.46 1.065-1.619 2.588-2.883 4.373-3.63 1.265-.53 2.624-.798 3.995-.785.778-.006 1.555.053 2.324.176.661.11 1.312.278 1.943.505.588.214 1.153.487 1.685.817.535.334 1.044.708 1.522 1.118l-2.637 3.188c-.345-.295-.708-.568-1.087-.817-.358-.233-.735-.433-1.129-.599-.407-.168-.831-.296-1.263-.38-.493-.095-.994-.14-1.495-.137-.738-.005-1.468.159-2.134.478-.656.314-1.246.75-1.74 1.285-.507.547-.906 1.186-1.175 1.884-.284.735-.427 1.519-.421 2.308v.055c-.01.825.133 1.645.421 2.418.266.715.673 1.37 1.195 1.925.513.545 1.133.977 1.82 1.271.736.308 1.527.46 2.324.45 1.558 0 2.872-.384 3.942-1.153v-2.75h-4.213v-3.607h8.262v8.284c-1.053.882-2.23 1.602-3.493 2.14-1.464.611-3.038.913-4.624.885zM133.39 22.07l-2.527-6.185-2.527 6.186h5.054zm-4.402-11.226h3.867L141 30.056h-4.375l-1.74-4.278h-8.044l-1.74 4.278h-4.267l8.154-19.212z"/>
</svg>
