<svg xmlns="http://www.w3.org/2000/svg" width="144" height="51" fill="none" viewBox="0 0 144 51">
    <path fill="#0FF" d="M63.42 11.338h.897l2.14 5.508h-1.223l-.418-1.161h-1.918l-.41 1.167h-1.195l2.127-5.514zm.416 1.603l-.597 1.717h1.203l-.606-1.717zM67.117 11.01h1.043v5.882h-1.043V11.01zM69.195 11.01h1.042v5.882h-1.041V11.01zM74.686 12.411h-1.404v-1.073h3.893v1.073H75.77v4.441h-1.085v-4.441zM78.912 11.01v2.614h.013c.028-.079.069-.151.12-.214.058-.076.125-.14.2-.194.087-.061.18-.11.279-.141.112-.037.23-.055.347-.054.22-.01.438.036.638.135.157.084.29.215.384.378.097.174.162.367.192.57.027.234.038.47.03.707v2.085H80.08v-1.857c0-.107 0-.215-.012-.337-.004-.111-.025-.22-.061-.324-.033-.095-.089-.178-.161-.24-.09-.07-.2-.103-.309-.095-.113-.005-.225.023-.326.082-.08.05-.146.124-.192.214-.045.096-.074.2-.086.307-.015.119-.022.239-.02.359v1.882h-1.044V11.01h1.043zM82.074 11.895c0-.18.065-.351.178-.478.114-.127.268-.198.428-.198.08-.002.158.015.231.049.074.034.14.084.195.148.07.079.122.176.15.282.03.107.034.22.015.328-.02.11-.063.211-.126.297s-.144.153-.235.195c-.092.043-.192.06-.29.049-.1-.011-.194-.049-.277-.11-.082-.062-.15-.146-.197-.244-.047-.097-.072-.207-.072-.318zm.085 1.191h1.04v3.78h-1.048l.008-3.78zM84.222 13.111h1.001v.513h.013c.037-.078.084-.15.138-.214.064-.076.137-.141.217-.194.19-.13.41-.198.633-.195.22-.01.438.037.638.135.158.08.293.207.39.367.097.174.162.367.192.57.033.233.05.47.047.708v2.084h-1.043v-1.846c0-.107 0-.215-.01-.337-.006-.111-.027-.22-.063-.324-.033-.107-.097-.198-.182-.258-.084-.061-.185-.088-.285-.077-.114-.005-.227.023-.328.082-.08.05-.147.124-.192.214-.045.096-.075.2-.088.307-.014.119-.021.239-.021.359v1.882h-1.057v-3.776zM92.034 16.572c0 .715-.16 1.259-.483 1.631-.322.37-.813.556-1.47.556-.3 0-.599-.038-.89-.114-.294-.074-.57-.22-.806-.429l.575-.966c.156.143.328.262.512.352.186.09.386.134.587.131.127.012.256-.004.377-.049.121-.044.233-.116.329-.21.076-.09.135-.194.173-.308.04-.114.057-.236.053-.358v-.365h-.013c-.113.174-.27.307-.449.384-.16.072-.331.11-.504.114-.234.003-.465-.046-.681-.144-.199-.093-.378-.23-.525-.406-.148-.178-.263-.389-.336-.618-.082-.252-.122-.518-.119-.786 0-.248.037-.496.107-.732.068-.228.172-.441.307-.629.132-.178.296-.324.482-.429.2-.114.421-.171.646-.167.137-.002.275.016.408.053.115.033.225.08.33.142.09.051.173.115.25.189.062.065.118.136.166.215h.014v-.518h.959l.001 3.46zm-2.627-1.595c-.001.121.02.242.062.354.041.11.102.211.178.296.075.09.164.162.263.215.103.05.215.077.329.077.113 0 .225-.026.328-.077.1-.052.191-.125.267-.215.076-.085.137-.185.178-.296.082-.227.082-.481 0-.708-.041-.11-.102-.21-.178-.295-.076-.09-.166-.162-.267-.214-.103-.053-.215-.08-.328-.08-.114 0-.226.027-.33.08-.098.052-.187.125-.262.214-.076.084-.137.184-.178.295-.042.112-.063.232-.062.354zM95.056 14.223c-.07-.103-.162-.185-.267-.24-.105-.056-.22-.083-.337-.08-.089 0-.177.025-.257.071-.04.021-.073.056-.096.098-.023.043-.033.093-.03.143-.002.046.01.093.033.131.023.04.058.068.097.083.105.052.214.092.326.118l.424.108c.149.038.291.1.424.184.131.081.243.197.326.337.093.173.138.372.128.573.009.212-.04.422-.141.601-.094.158-.219.288-.365.383-.155.099-.324.167-.5.201-.181.038-.365.058-.549.058-.242 0-.484-.038-.717-.111-.232-.07-.444-.209-.612-.402l.633-.785c.088.126.198.23.324.307.128.073.27.109.412.105.112.002.223-.018.328-.058.043-.012.08-.04.107-.079.027-.039.04-.087.04-.136-.002-.046-.014-.09-.037-.128-.023-.038-.055-.068-.092-.087-.105-.056-.215-.097-.328-.124l-.424-.11c-.147-.037-.29-.095-.424-.173-.132-.078-.243-.192-.326-.331-.093-.172-.138-.372-.128-.573-.005-.2.037-.399.12-.575.08-.158.189-.294.32-.398.138-.11.292-.191.455-.24.17-.049.346-.073.522-.073.228.001.456.038.675.11.218.07.414.207.57.392l-.633.7z"/>
    <path fill="#fff" d="M95.618 42.256H.48c-.264 0-.479.24-.479.537 0 .296.215.537.48.537h95.138c.265 0 .48-.24.48-.537 0-.297-.215-.537-.48-.537zM11.023 11.602h4.291l10.244 26.363h-5.852l-2.031-5.581H8.528l-1.962 5.581H.846l10.177-26.363zm1.996 7.67l-2.856 8.192h5.753l-2.897-8.192zM29.723 24.336h-3.3V19.87h3.3v-3.203c-.004-.943.073-1.884.232-2.81.14-.841.447-1.637.898-2.329.497-.714 1.16-1.261 1.917-1.582.83-.385 1.922-.577 3.275-.577.512 0 1.011.025 1.498.075.482.049.96.136 1.43.26l-.233 4.722c-.26-.113-.527-.207-.798-.279-.274-.064-.553-.095-.832-.092-.798 0-1.396.192-1.795.577-.399.385-.6 1.175-.606 2.37v2.868h3.693v4.467H34.71v13.629h-4.986V24.336zM40.993 19.869h4.986v2.904h.065c.533-1.119 1.165-1.957 1.897-2.513.73-.557 1.651-.836 2.76-.838.289 0 .576.013.866.037.27.023.536.072.797.148v5.103c-.343-.121-.693-.215-1.048-.28-.358-.063-.719-.095-1.08-.094-.955 0-1.71.149-2.263.447-.524.27-.969.703-1.28 1.247-.314.586-.51 1.24-.576 1.919-.093.815-.137 1.636-.132 2.458v7.558h-4.986l-.006-18.096zM54.896 14.168c0-.534.117-1.059.341-1.529.224-.47.55-.871.945-1.167.396-.296.852-.479 1.326-.53.474-.052.952.027 1.392.232.44.205.828.528 1.13.94.3.413.507.902.599 1.426.092.523.067 1.063-.072 1.573-.14.51-.39.974-.727 1.35-.405.45-.92.757-1.481.88-.561.124-1.142.06-1.67-.186s-.979-.66-1.296-1.193c-.317-.531-.487-1.157-.487-1.796zm.399 5.697h4.985V37.96h-4.985V19.865z"/>
    <path fill="#F2902F" d="M54.896 14.168c0-.534.117-1.059.341-1.529.224-.47.55-.871.945-1.167.396-.296.852-.479 1.326-.53.474-.052.952.027 1.392.232.44.205.828.528 1.13.94.3.413.507.902.599 1.426.092.523.067 1.063-.072 1.573-.14.51-.39.973-.727 1.35-.405.45-.92.757-1.481.88-.561.124-1.142.06-1.67-.186s-.979-.66-1.296-1.193c-.317-.531-.487-1.157-.487-1.796z"/>
    <path fill="#fff" d="M75.518 25.714c-.266-.419-.62-.758-1.032-.987-.44-.26-.93-.394-1.428-.39-1.266 0-2.247.421-2.944 1.266-.697.844-1.046 1.949-1.049 3.314 0 1.365.35 2.47 1.049 3.314.7.845 1.682 1.263 2.947 1.256.501.016.997-.126 1.429-.41.387-.26.735-.585 1.032-.966l3.292 3.864c-.754.881-1.7 1.529-2.744 1.88-2.126.765-4.419.72-6.52-.128-1.058-.42-2.031-1.072-2.86-1.92-.82-.84-1.473-1.864-1.918-3.005-.463-1.238-.7-2.567-.7-3.909 0-1.342.237-2.67.7-3.909.446-1.14 1.099-2.163 1.917-3.005.83-.846 1.803-1.497 2.861-1.917 1.128-.442 2.317-.659 3.511-.64 1.02.014 2.033.196 3.005.541 1.045.353 1.991 1 2.748 1.879l-3.296 3.872zM91.451 35.694h-.067c-.523.94-1.298 1.67-2.215 2.087-.923.423-1.912.638-2.91.633-.738.002-1.472-.117-2.179-.354-.67-.22-1.297-.58-1.847-1.06-.531-.472-.963-1.07-1.263-1.75-.323-.755-.482-1.585-.466-2.422-.027-.915.15-1.823.515-2.642.335-.71.813-1.322 1.397-1.788.614-.486 1.293-.857 2.013-1.1.766-.263 1.55-.456 2.345-.577.806-.12 1.616-.191 2.428-.215.81-.024 1.558-.036 2.246-.036.016-.45-.062-.896-.227-1.306-.164-.41-.412-.771-.723-1.055-.63-.584-1.426-.895-2.243-.876-.78-.01-1.55.187-2.246.577-.688.395-1.304.932-1.814 1.582l-2.656-3.067c.938-.974 2.05-1.717 3.26-2.179 1.24-.484 2.545-.73 3.858-.726 1.463 0 2.666.205 3.61.614.884.364 1.665.988 2.26 1.806.592.858.996 1.86 1.181 2.923.235 1.318.347 2.659.332 4.002v9.198h-4.589v-2.269zm-1.23-5.66c-.384 0-.848.019-1.414.055-.553.035-1.1.141-1.63.318-.488.154-.94.42-1.33.781-.185.18-.33.404-.424.655-.096.251-.138.524-.125.796-.013.305.053.607.189.87.136.265.336.48.578.62.484.316 1.035.484 1.595.485.479.004.955-.068 1.416-.214.432-.143.841-.36 1.213-.644.351-.27.641-.627.848-1.044.219-.457.328-.97.316-1.49v-1.19l-1.233.001z"/>
    <path fill="#B2ACAC" d="M.09 45.78h.997c.133 0 .265.011.395.035.128.022.25.072.359.148.112.075.205.182.268.311.074.163.109.345.102.528.003.187-.052.37-.157.515-.12.156-.284.258-.464.29v.013c.108.009.214.04.312.09.093.047.176.114.246.198s.123.183.157.291c.046.15.065.308.055.465-.01.158-.048.312-.113.452-.071.134-.17.247-.287.33-.118.08-.248.136-.384.164-.126.029-.254.043-.383.043H.09V45.78zm.322 1.672h.67c.138.006.275-.017.406-.066.088-.038.169-.095.238-.168.055-.058.095-.132.117-.214.019-.07.028-.142.029-.215.004-.115-.017-.23-.06-.335-.038-.085-.095-.16-.165-.214-.072-.055-.153-.093-.238-.112-.094-.014-.189-.018-.283-.01H.412v1.334zm0 1.872h.739c.155.006.31-.02.456-.077.1-.04.191-.106.267-.191.057-.07.1-.153.124-.245.02-.075.03-.153.03-.231.004-.128-.02-.254-.072-.368-.046-.098-.111-.182-.192-.247-.08-.062-.17-.106-.264-.13-.099-.03-.2-.045-.301-.046H.412v1.535zM5.766 48.975v.711h-.268v-.273c0-.057-.004-.113-.012-.17h-.015c-.065.15-.167.274-.293.359-.143.103-.309.155-.478.15-.149.007-.297-.025-.433-.092-.105-.056-.195-.14-.263-.245-.065-.103-.11-.221-.13-.345-.025-.134-.038-.27-.039-.406V47.16h.294v1.486c0 .1.008.2.025.298.014.092.043.18.086.26.041.077.1.141.17.184.09.05.188.072.286.067.105.001.208-.02.305-.062.095-.041.18-.107.25-.191.073-.095.13-.204.166-.322.042-.148.063-.303.06-.458v-1.262h.293l-.004 1.814zM7.98 50.47c-.048.148-.127.281-.23.388-.11.097-.245.148-.384.142-.05 0-.1-.005-.148-.016-.048-.008-.095-.02-.142-.034l.03-.307.13.04c.043.014.088.02.133.02.05.001.098-.012.14-.038.04-.026.075-.058.104-.097.03-.041.056-.087.077-.135.021-.049.04-.1.055-.15l.205-.587-.924-2.535h.328l.748 2.125.72-2.125h.312L7.979 50.47zM14.407 48.536l.499-1.007h.331l-.625 1.236.788.923h-.443l-.517-.622c-.126.193-.28.36-.455.496-.182.131-.396.197-.613.189-.141.001-.28-.026-.413-.08-.123-.049-.237-.126-.333-.225-.097-.1-.174-.221-.227-.356-.056-.148-.084-.306-.082-.466-.002-.135.021-.27.069-.393.044-.11.105-.212.178-.3.075-.09.16-.17.252-.239.093-.07.191-.142.293-.215-.05-.064-.1-.133-.15-.203-.049-.068-.094-.14-.134-.215-.038-.076-.071-.155-.098-.236-.025-.083-.038-.169-.038-.256-.002-.128.022-.255.07-.371.046-.107.111-.202.193-.277.083-.075.177-.133.278-.172.106-.036.217-.053.328-.05.1 0 .2.02.293.061.092.04.177.096.251.167.077.073.138.164.179.267.041.102.061.214.059.326.002.124-.02.248-.067.36-.044.103-.103.196-.175.275-.075.082-.158.154-.247.215-.092.062-.192.122-.284.18l.84.988zm-1.112-.816c-.079.052-.157.105-.232.163-.075.058-.146.124-.211.195-.063.07-.115.151-.154.24-.04.095-.06.199-.059.304-.001.115.02.23.061.334.04.097.096.183.167.254.073.073.157.129.25.165.098.037.2.056.304.056.088 0 .175-.015.257-.047.08-.034.154-.079.223-.133.07-.056.134-.119.192-.19.057-.067.11-.139.16-.214l-.958-1.127zm.238-1.7c-.136-.004-.268.05-.37.15-.05.05-.09.11-.116.18-.027.068-.039.143-.036.217-.002.07.008.139.029.204.025.07.056.138.092.202.037.065.078.128.123.187l.12.159.215-.134c.074-.046.142-.1.205-.163.062-.061.113-.134.154-.214.041-.083.062-.176.061-.27.002-.07-.009-.14-.033-.205-.024-.065-.06-.123-.105-.171-.092-.095-.214-.146-.34-.142zM18.848 48.946c.076.154.191.281.33.365.143.083.302.124.462.12.103.001.206-.017.303-.054.09-.034.173-.085.246-.152.073-.067.131-.152.17-.248.04-.096.06-.2.058-.306.003-.117-.023-.232-.077-.333-.051-.088-.121-.162-.203-.214-.09-.06-.186-.108-.286-.144l-.326-.12c-.113-.041-.222-.086-.328-.138-.103-.05-.2-.117-.285-.2-.087-.085-.156-.19-.204-.309-.053-.145-.079-.302-.074-.459-.003-.157.028-.313.09-.455.058-.13.141-.245.243-.335.107-.09.227-.159.355-.202.14-.045.284-.067.43-.064.18-.003.358.035.525.111.167.08.312.21.418.376l-.278.215c-.074-.124-.174-.224-.293-.29-.118-.068-.25-.1-.382-.092-.1 0-.2.014-.297.045-.09.028-.173.075-.248.137-.07.061-.128.139-.168.228-.044.1-.066.21-.064.322-.01.162.038.322.133.446.093.107.205.19.33.245.14.063.283.116.429.159.149.044.293.106.43.184.131.075.244.185.33.32.096.168.142.366.132.565.003.16-.027.32-.088.466-.057.131-.138.248-.238.341-.101.096-.218.169-.344.215-.13.047-.268.07-.406.07-.215.003-.43-.043-.63-.133-.198-.096-.368-.252-.492-.45l.297-.232zM24.162 49.211c-.101.182-.248.326-.422.415-.174.085-.363.129-.554.126-.161.003-.32-.03-.47-.099-.136-.062-.26-.156-.36-.276-.104-.123-.183-.27-.232-.43-.056-.172-.083-.355-.08-.539-.003-.178.025-.356.081-.523.052-.16.132-.305.235-.43.1-.118.222-.213.356-.279.144-.068.299-.102.455-.1.157-.004.312.03.456.1.127.063.24.154.334.269.085.111.15.24.192.38.045.137.068.282.069.429v.26h-1.895c.002.09.014.18.036.266.027.113.073.22.134.313.077.122.18.22.3.284.119.065.25.095.383.088.152 0 .301-.041.436-.12.133-.073.245-.187.322-.329l.224.195zm-.224-1c.001-.11-.02-.218-.062-.318-.04-.097-.096-.185-.165-.26-.072-.076-.156-.137-.249-.178-.097-.044-.2-.066-.305-.066-.14-.006-.277.032-.399.11-.098.064-.183.15-.25.253-.057.083-.101.176-.133.274-.02.06-.034.122-.038.185h1.6zM25.696 45.546h.293v4.133h-.293v-4.133zM27.646 45.546h.294v4.133h-.294v-4.133zM32.726 45.78h.332l1.455 3.864h-.36l-.384-1.028h-1.833l-.383 1.028h-.336l1.51-3.864zm.152.393l-.806 2.123h1.586l-.78-2.123zM35.86 47.455h-.47v-.294h.47v-.826c-.005-.14.017-.279.065-.408.039-.098.095-.187.165-.26.062-.063.136-.11.216-.14.074-.026.15-.04.227-.04.115-.005.23.018.337.066l-.057.284c-.084-.04-.174-.059-.265-.054-.265 0-.395.215-.395.672v.706h.527v.294h-.527v2.23h-.294v-2.23zM37.92 47.87v-.174-.204-.196-.137h.292v.273c-.001.056.003.113.012.17.07-.145.169-.27.288-.368.126-.097.276-.147.43-.142.028-.003.057-.003.086 0l.086.02-.035.322c-.036-.014-.074-.021-.113-.022-.113-.003-.225.02-.33.069-.088.041-.167.106-.228.189-.062.082-.108.178-.134.281-.03.113-.046.23-.044.348v1.376h-.294l-.017-1.805zM40.293 46.11c.001-.056.02-.11.052-.153.032-.042.076-.071.126-.081.049-.01.1-.001.143.026.044.027.078.07.097.122.018.052.02.11.006.163-.015.053-.046.099-.088.13-.042.03-.091.044-.141.039-.05-.006-.096-.03-.132-.07-.02-.023-.037-.05-.048-.08-.01-.031-.016-.064-.015-.096zm.073 1.002h.288v2.525h-.288v-2.525zM44.151 49.314c-.103.143-.234.256-.383.331-.143.072-.298.108-.455.107-.164.002-.327-.031-.48-.098-.143-.062-.273-.156-.383-.277-.106-.123-.19-.27-.243-.43-.12-.345-.12-.728 0-1.073.055-.16.137-.306.243-.43.11-.12.24-.214.384-.274.152-.067.315-.1.48-.099.159-.001.317.038.462.114.145.078.276.188.383.324l-.234.195c-.08-.1-.173-.183-.278-.246-.1-.061-.213-.093-.328-.093-.128-.002-.255.027-.372.084-.106.05-.202.123-.282.215-.08.094-.14.206-.178.328-.082.26-.082.543 0 .803.038.122.099.234.178.328.08.093.176.166.282.215.117.056.244.084.372.082.119.002.236-.03.34-.095.103-.064.194-.15.266-.255l.226.244zM47.135 48.625V49.233c0 .084 0 .163.012.236.011.073.011.144.02.215h-.272c-.02-.136-.03-.273-.028-.41h-.012c-.072.15-.181.276-.314.36-.147.083-.311.123-.476.116-.098 0-.195-.013-.29-.04-.09-.027-.176-.071-.253-.132-.082-.064-.148-.151-.192-.252-.044-.101-.065-.213-.06-.325-.01-.166.037-.33.13-.46.088-.113.2-.2.326-.253.131-.058.27-.095.41-.11.127-.015.255-.024.384-.025h.34v-.152c.009-.09-.004-.18-.035-.261-.032-.082-.081-.154-.144-.21-.134-.1-.294-.15-.455-.143-.253-.003-.498.099-.688.285l-.173-.214c.114-.122.251-.213.401-.267.148-.057.303-.088.46-.09.234-.014.465.061.654.215.086.086.153.194.196.315.042.121.058.251.048.38l.011.614zm-.585-.214c-.12 0-.24.01-.358.027-.108.017-.212.048-.313.093-.085.038-.161.099-.222.176-.057.076-.087.173-.085.273-.003.075.014.15.048.214.03.059.07.11.12.148.05.038.104.067.162.086.062.022.127.032.192.03.131.005.262-.02.383-.075.094-.044.177-.113.242-.2.06-.08.103-.176.125-.279.023-.103.034-.209.034-.315v-.17l-.328-.008zM48.69 47.87v-.174-.204-.195-.138h.294v.273c-.002.056.002.113.011.17h.016c.065-.148.166-.273.291-.36.143-.101.31-.154.48-.15.147-.006.294.025.429.093.104.056.194.14.263.245.064.103.109.221.13.345.025.134.037.27.037.406v1.503h-.294v-1.486c0-.1-.007-.2-.023-.298-.015-.092-.044-.18-.086-.26-.041-.077-.1-.141-.17-.185-.09-.049-.188-.073-.286-.068-.105-.001-.208.02-.305.064-.096.04-.181.106-.25.191-.075.093-.131.203-.167.322-.043.148-.063.302-.06.457v1.263h-.292l-.018-1.814zM51.996 48.243h1.206v.263h-1.206v-.263zM54.575 47.87v-.174-.204-.195-.138h.269v.273c0 .056.003.113.011.17h.016c.066-.148.168-.272.293-.36.143-.102.31-.154.48-.15.145 0 .287.044.41.13.132.098.227.247.268.418.06-.176.174-.324.32-.416.137-.087.29-.132.447-.131.148-.007.295.024.43.092.104.056.193.14.26.245.066.103.111.22.133.345.025.134.037.27.037.406v1.503h-.286v-1.486c0-.1-.008-.2-.025-.298-.014-.092-.042-.18-.084-.26-.042-.077-.1-.141-.171-.185-.089-.049-.187-.072-.286-.068-.117-.005-.233.025-.337.085-.084.052-.155.125-.207.215-.051.087-.088.183-.11.284-.02.095-.03.192-.03.29v1.42h-.294v-1.52c.008-.195-.031-.39-.115-.562-.035-.069-.087-.125-.15-.163-.061-.038-.132-.056-.203-.051-.105-.001-.209.02-.307.064-.095.04-.18.106-.249.19-.073.095-.13.204-.165.323-.043.147-.063.302-.061.457v1.262h-.294V47.87zM61.262 48.625V49.233c0 .084 0 .163.014.236.013.073.011.144.02.215h-.271c-.022-.136-.032-.273-.031-.41h-.01c-.072.15-.181.276-.314.36-.148.083-.311.123-.476.116-.098 0-.195-.013-.29-.04-.09-.027-.176-.071-.253-.132-.082-.065-.148-.152-.192-.252-.045-.101-.066-.213-.063-.325-.007-.166.04-.33.133-.46.088-.113.2-.2.326-.253.131-.058.27-.095.41-.11.127-.015.255-.024.384-.025h.341v-.152c.007-.09-.005-.179-.037-.261-.031-.082-.08-.154-.143-.21-.135-.1-.294-.15-.455-.143-.253-.003-.498.099-.688.285l-.173-.214c.114-.122.251-.213.401-.267.148-.058.303-.088.46-.09.234-.014.465.061.654.215.086.086.153.194.196.315.042.121.058.251.048.38l.01.614zm-.585-.214c-.12 0-.24.01-.36.027-.107.017-.212.048-.313.093-.085.038-.16.098-.22.176-.048.066-.078.147-.085.233-.007.085.01.17.046.246.03.058.072.109.121.148.05.038.105.067.163.086.062.021.127.031.192.03.131.005.262-.02.384-.076.093-.044.176-.113.241-.2.06-.08.102-.176.125-.278.023-.103.034-.21.034-.316v-.17h-.328zM64.79 49.239h-.009c-.045.087-.104.164-.172.228-.069.063-.143.116-.223.158-.08.042-.164.073-.251.093-.085.019-.172.03-.259.03-.163.002-.326-.032-.477-.1-.144-.06-.275-.154-.384-.276-.106-.123-.189-.27-.244-.43-.12-.345-.12-.727 0-1.073.056-.16.139-.305.244-.429.109-.121.24-.215.383-.275.152-.067.315-.1.478-.099.087.001.174.011.259.03.087.02.171.051.251.093.08.042.155.095.223.159.069.064.127.14.172.227h.01v-2.05h.291v4.133h-.291v-.42zm.03-.82c0-.138-.025-.275-.073-.401-.048-.123-.116-.235-.202-.329-.086-.092-.187-.164-.297-.215-.117-.056-.244-.085-.372-.083-.127-.002-.253.026-.37.083-.107.05-.203.123-.284.215-.08.094-.14.206-.178.328-.082.26-.082.544 0 .803.038.123.099.235.178.329.08.092.177.165.284.214.117.057.243.085.37.082.125.002.249-.024.364-.077.11-.05.211-.123.298-.215.085-.094.153-.205.2-.328.051-.128.077-.266.078-.406h.004zM68.567 49.211c-.103.181-.25.325-.424.415-.175.085-.364.129-.555.126-.16.003-.319-.03-.467-.099-.137-.063-.26-.157-.363-.276-.103-.124-.182-.27-.232-.43-.055-.172-.083-.355-.08-.539-.001-.178.027-.356.082-.523.052-.16.132-.306.236-.43.1-.12.222-.214.357-.279.143-.068.298-.103.454-.1.157-.004.313.03.456.1.127.063.24.154.332.269.09.11.159.24.204.38.043.137.066.283.067.429v.26h-1.9c.002.09.014.18.036.266.026.113.072.22.134.313.077.122.18.22.3.285.12.065.252.095.385.087.15 0 .3-.042.433-.12.134-.073.246-.187.324-.33l.22.196zm-.225-1c0-.11-.02-.218-.061-.318-.04-.097-.097-.185-.167-.26-.072-.076-.157-.137-.25-.178-.096-.044-.2-.066-.304-.066-.14-.006-.278.032-.4.11-.097.064-.183.15-.25.253-.056.083-.101.176-.133.274-.02.06-.032.122-.038.185h1.603zM72.185 45.78h.997c.13 0 .258.016.384.047.128.029.251.083.362.162.111.078.203.185.269.313.074.153.11.326.105.5.004.157-.026.313-.086.455-.054.123-.133.23-.23.314-.1.084-.212.146-.332.184-.128.04-.26.059-.393.058h-.748v1.838h-.322l-.006-3.87zm.322 1.707h.735c.09 0 .18-.013.268-.037.084-.022.163-.06.234-.114.07-.055.126-.129.165-.214.047-.1.07-.212.065-.324.003-.11-.02-.22-.067-.318-.042-.085-.1-.158-.17-.215-.073-.058-.155-.1-.242-.122-.09-.026-.182-.038-.274-.039h-.714v1.383zM75.679 47.87v-.174-.204-.196-.137h.293v.273c-.001.056.003.113.012.17.07-.145.169-.27.288-.368.125-.097.276-.147.43-.142.028-.003.057-.003.085 0l.087.02-.035.322c-.036-.014-.075-.021-.113-.022-.113-.003-.225.02-.33.069-.089.042-.167.107-.23.189-.06.083-.106.178-.134.281-.03.113-.045.23-.044.348v1.376h-.292l-.017-1.805zM77.856 48.423c-.002-.182.028-.362.088-.532.055-.16.138-.305.243-.43.11-.12.24-.214.384-.274.308-.132.65-.132.959 0 .142.062.272.156.38.277.108.122.192.267.247.427.12.345.12.728 0 1.074-.054.16-.138.307-.246.429-.11.12-.24.215-.383.277-.31.132-.65.132-.96 0-.143-.061-.274-.156-.383-.277-.106-.124-.188-.27-.243-.43-.06-.172-.09-.356-.086-.54zm.293 0c0 .137.02.273.061.402.038.122.099.234.179.328.08.093.177.166.283.215.117.057.243.084.37.082.128.002.255-.025.373-.082.106-.05.203-.122.283-.215.079-.095.14-.206.179-.328.079-.26.079-.543 0-.803-.04-.121-.1-.233-.179-.328-.08-.093-.177-.166-.283-.215-.118-.057-.245-.086-.373-.084-.127-.002-.253.027-.37.084-.106.05-.203.123-.283.215-.08.094-.14.206-.179.328-.039.13-.058.265-.055.401h-.006zM83.635 49.236h-.01c-.044.086-.102.163-.17.227-.068.063-.143.116-.222.159-.08.042-.165.073-.252.092-.085.02-.172.03-.259.03-.164.002-.326-.031-.479-.099-.144-.06-.275-.155-.383-.276-.107-.123-.19-.27-.244-.43-.12-.345-.12-.728 0-1.073.055-.16.138-.306.243-.43.11-.12.24-.214.384-.274.153-.067.315-.101.48-.099.086 0 .173.01.258.03.086.03.167.072.244.125.08.042.154.095.222.158.069.065.126.142.17.228h.01v-2.05h.294v4.132h-.294l.008-.45zm.03-.82c.002-.139-.024-.276-.074-.402-.044-.123-.109-.234-.192-.328-.086-.092-.187-.165-.297-.215-.117-.057-.244-.085-.372-.084-.128-.002-.255.027-.372.084-.106.05-.202.123-.282.215-.08.094-.14.206-.178.328-.082.26-.082.543 0 .803.037.124.097.237.176.333.08.092.176.165.282.214.118.057.244.085.372.082.128.002.255-.026.372-.082.11-.05.211-.123.297-.214.083-.095.148-.206.192-.329.051-.127.078-.266.077-.405zM87.329 48.975v.711h-.269v-.273c0-.057-.003-.113-.011-.17h-.016c-.065.15-.167.274-.293.359-.142.103-.309.155-.478.15-.148.007-.297-.025-.433-.092-.105-.056-.195-.14-.263-.245-.066-.103-.11-.22-.13-.345-.023-.134-.035-.27-.035-.406V47.16h.294v1.486c-.001.1.006.198.023.296.013.092.042.18.084.26.042.077.102.14.173.184.088.05.187.072.285.067.105.001.208-.02.305-.062.096-.041.181-.107.25-.191.073-.094.13-.204.165-.322.043-.148.064-.302.06-.458v-1.26h.294l-.005 1.814zM90.797 49.314c-.102.143-.234.256-.383.331-.143.072-.298.108-.454.107-.164.003-.327-.03-.48-.098-.144-.061-.275-.156-.383-.277-.107-.124-.19-.27-.246-.43-.117-.346-.117-.727 0-1.073.056-.16.14-.305.246-.43.108-.12.24-.214.383-.274.153-.068.316-.101.48-.099.159-.001.316.038.46.114.145.078.276.189.383.324l-.234.195c-.08-.1-.174-.183-.28-.246-.1-.061-.212-.093-.326-.093-.128-.002-.254.027-.372.084-.106.05-.203.122-.283.215-.08.094-.14.206-.179.328-.079.26-.079.543 0 .803.039.122.1.234.178.328.081.093.178.166.284.215.118.057.245.084.372.082.119.001.236-.031.34-.095.103-.065.193-.152.266-.255l.228.244zM93.131 47.455h-.644v1.647c-.003.048.003.095.017.14.014.045.037.087.065.122.031.032.067.056.107.072.04.016.081.023.123.02.057 0 .114-.007.17-.024.055-.015.11-.036.162-.062l.025.294c-.063.025-.127.045-.192.06-.062.018-.127.027-.191.028-.092.003-.183-.015-.269-.051-.068-.029-.128-.075-.177-.136-.048-.06-.084-.132-.103-.21-.022-.082-.033-.167-.032-.253v-1.647h-.49v-.294h.49v-.727h.293v.727h.644l.002.294zM94.431 49.042c.06.133.156.241.275.309.118.07.25.106.383.105.065 0 .13-.01.192-.032.06-.02.116-.052.167-.093.048-.039.088-.089.119-.146.03-.058.047-.125.046-.193.001-.05-.008-.102-.028-.148s-.05-.086-.087-.116c-.074-.063-.158-.11-.248-.137-.098-.032-.205-.06-.322-.086-.11-.022-.22-.058-.322-.11-.096-.048-.181-.122-.247-.214-.072-.107-.107-.238-.1-.371-.003-.113.02-.225.069-.325.044-.088.105-.165.178-.225.075-.061.159-.107.248-.135.09-.029.184-.043.278-.043.166-.005.33.035.48.114.138.08.248.207.315.362l-.264.174c-.048-.106-.12-.197-.207-.264-.098-.065-.21-.097-.324-.092-.113.002-.223.038-.319.105-.046.033-.085.076-.115.127-.031.05-.047.112-.046.174-.003.048.004.096.021.14.018.043.045.082.079.11.075.06.158.104.247.13.106.032.214.059.322.079.112.02.22.056.323.107.096.049.18.123.247.215.073.116.108.256.1.397.003.118-.02.235-.066.341-.043.096-.105.179-.182.243-.078.067-.166.118-.26.148-.1.033-.203.05-.307.05-.185.002-.367-.041-.535-.127-.162-.079-.297-.215-.384-.387l.274-.186z"/>
    <path fill="#F2902F" d="M142.084 18.398h-2.209c-.346.016-.689-.09-.979-.304-.289-.214-.512-.524-.635-.887L134.809 6.64c-.328-1.002-1.17-1.543-2.11-1.672-2.55-.35-5.864-1.275-7.07-1.275-1.484 0-2.399.51-4.57.51-2.17 0-3.317-3.069-4.109-3.964-.792-.895-4.685 1.024-6.969 1.024-2.284 0-4.794 1.661-4.794 3.836 0 2.174-2.17 3.58-4.569 6.266-2.4 2.685.744 9.145 2.514 11.128 1.77 1.984 4.113 2.428 6.855 1.15 2.742-1.276 3.713-.703 5.026.767 1.314 1.47 1.371 3.58 2.971 5.367 1.599 1.786.799 8.442.799 11.377 0 2.934 2.171 6.654 3.885 8.57 1.715 1.914 1.943 1.287 4.57 0 2.627-1.289 4.685-7.42 7.084-10.105 2.399-2.686 1.942-6.655 1.942-8.952 0-2.296 4.455-6.779 6.741-9.337 2.286-2.56-.921-2.93-.921-2.93zM142.313 34.264c.841.43 1.085 1.47.513 2.941-.571 1.47 1.515 4.188-.513 6.46-2.029 2.27-2.57 1.343-3.771 0-1.2-1.344-1.342-2.272-.686-3.006s.6-3.357 1.429-4.293c.828-.936 1.428-2.932 3.028-2.102z"/>
    <path fill="#E57B1C" d="M140.832 43.664c-1.2-1.343-1.342-2.27-.686-3.005.655-.734.6-3.357 1.428-4.293.414-.464.767-1.196 1.222-1.718-.134-.17-.299-.306-.483-.399-1.6-.83-2.2 1.183-3.028 2.11-.829.928-.767 3.549-1.429 4.294-.662.745-.514 1.661.686 3.005 1.03 1.153 1.577 1.996 2.992.78-.219-.218-.445-.486-.702-.774z"/>
</svg>
