<svg xmlns="http://www.w3.org/2000/svg" width="33" height="30" fill="none" viewBox="0 0 33 30">
    <circle cx="14.348" cy="15.065" r="14.348" fill="#fff"/>
    <path fill="#212529" d="M10.94 13.9h7.083l.254-1.017h-6.32v-1.016h6.971c.078 0 .154.017.223.051.07.034.13.083.178.144.047.061.08.132.096.208.016.075.015.153-.004.228l-1.27 5.082c-.028.11-.091.207-.18.277-.09.07-.2.108-.313.108h-7.226c-.135 0-.264-.054-.36-.15-.095-.095-.148-.224-.148-.359V11.36H8.908v-1.017h1.524c.135 0 .264.054.36.15.095.094.148.224.148.358v3.05zm0 7.114c-.27 0-.528-.108-.718-.298-.191-.19-.298-.45-.298-.719 0-.27.107-.528.298-.718.19-.191.449-.298.718-.298.27 0 .528.107.719.297.19.191.297.45.297.72 0 .269-.107.527-.297.718-.19.19-.45.297-.719.297zm6.098 0c-.27 0-.528-.108-.719-.298-.19-.19-.297-.45-.297-.719 0-.27.107-.528.297-.718.19-.191.45-.298.719-.298.27 0 .528.107.719.297.19.191.297.45.297.72 0 .269-.107.527-.297.718-.191.19-.45.297-.72.297z"/>
    <g filter="url(#prefix__filter0_d)">
        <circle cx="24.033" cy="6.098" r="6.098" fill="#ED3833"/>
    </g>
    <path fill="#fff" d="M26.381 7.872h-.678v1.167h-1.164V7.872h-2.404v-.829l2.47-3.637h1.098v3.54h.678v.926zm-1.842-.925V5.99c0-.159.007-.39.02-.693.012-.303.023-.48.03-.528h-.03c-.096.21-.21.416-.344.616l-1.032 1.56h1.356z"/>
    <defs>
        <filter id="prefix__filter0_d" width="17.935" height="17.935" x="15.065" y="0" color-interpolation-filters="sRGB" filterUnits="userSpaceOnUse">
            <feFlood flood-opacity="0" result="BackgroundImageFix"/>
            <feColorMatrix in="SourceAlpha" values="0 0 0 0 0 0 0 0 0 0 0 0 0 0 0 0 0 0 127 0"/>
            <feOffset dy="2.857"/>
            <feGaussianBlur stdDeviation="1.429"/>
            <feColorMatrix values="0 0 0 0 0 0 0 0 0 0 0 0 0 0 0 0 0 0 0.25 0"/>
            <feBlend in2="BackgroundImageFix" result="effect1_dropShadow"/>
            <feBlend in="SourceGraphic" in2="effect1_dropShadow" result="shape"/>
        </filter>
    </defs>
</svg>
