<svg xmlns="http://www.w3.org/2000/svg" width="56" height="56" fill="none" viewBox="0 0 56 56">
    <path fill="#ED3833" d="M55.904 31.358C55.904 44.964 43.394 56 27.952 56 12.51 56 0 44.964 0 31.358c0-.627.585-1.135 1.307-1.135s1.308.509 1.308 1.135c0 12.36 11.348 22.372 25.337 22.372 13.989 0 25.337-10.012 25.337-22.372C53.29 19 41.941 8.987 27.952 8.987c-.722 0-1.307-.508-1.307-1.135V3.289l-7.703 4.577 7.703 4.716V7.095h2.614v7.676c0 .92-1.194 1.458-2.06.928l-11.302-6.92c-.745-.456-.738-1.417.015-1.864L27.214.2c.867-.515 2.045.024 2.045.937v5.606c14.835.602 26.645 11.396 26.645 24.615z"/>
    <path fill="#ED3833" d="M16.247 24.595v2.27h21.79v-2.27h-21.79zm-2.615-2.27h27.02v6.81h-27.02v-6.81z"/>
    <path fill="#ED3833" d="M17.119 29.135v10.594h20.047V29.135H17.119zm-.872-2.27h21.79c.963 0 1.743.677 1.743 1.513v12.108c0 .836-.78 1.514-1.743 1.514h-21.79c-.963 0-1.743-.678-1.743-1.514V28.378c0-.836.78-1.513 1.743-1.513z"/>
</svg>
