<svg xmlns="http://www.w3.org/2000/svg" width="141" height="21" fill="none" viewBox="0 0 141 21">
    <g clip-path="url(#prefix__clip0)">
        <path fill="#4E3662" d="M118.514 21c-.566-.597-1.229-1.128-1.677-1.8-1.028-1.534-1.941-3.119-2.887-4.692-.825-1.368-1.968-1.793-3.551-1.258v5.471c0 1.83-.179 1.989-2.04 1.944-.305 0-.607-.034-1.032-.058V2.747c0-.25 0-.5.022-.75.066-1.045.357-1.376 1.397-1.323 2.329.118 4.659.262 6.984.465 3.381.295 5.214 3.205 5.046 6.463-.125 2.435-1.567 3.95-3.719 4.917-.48.216-.97.413-1.554.667l5.064 7.456-.7.357h-1.353zm-8.14-8.584c2.162.207 4.177.105 5.809-1.333 1.924-1.693 2.345-4.166 1.227-6.44-1.144-2.333-3.586-3.666-6.049-3.333-.625.085-.984.382-.984 1.018-.005 3.33-.003 6.66-.003 10.088z"/>
        <path fill="#0B316B" d="M10.313 0c.664.167 1.337.298 1.992.5 2.536.777 2.987 1.5 2.68 4.23-.594-.677-1.108-1.36-1.722-1.942C11.758 1.363 9.985.602 7.975 1.537c-.96.454-1.778 1.154-2.367 2.028-2.75 4.278-3.179 8.743-.715 13.32 1.014 1.878 2.478 3.067 4.762 2.975 1-.04 1.645-.403 1.86-1.375.24-1.22.396-2.454.467-3.695.047-.592-.352-1-.944-1.108-.591-.109-1.171-.135-1.756-.209-.338-.043-.677-.108-1.015-.166l.03-.24h8.346l.045.186-1.81.475c0 1.452.054 2.897-.032 4.334-.027.448-.32 1.083-.685 1.281-6.11 3.309-11.644.265-13.549-4.418-.233-.573-.41-1.167-.612-1.757V10.002l.519-1.867C1.681 3.968 4.122 1.073 8.634.238c.286-.053.56-.155.845-.235L10.313 0z"/>
        <path fill="#0A306A" d="M40.745 0c.74.207 1.03.775 1.291 1.433 2.339 5.873 4.692 11.74 7.059 17.602.204.51.375 1.033.595 1.645-.94-.073-1.78-.113-2.614-.208-.88-.1-1.39-.7-1.723-1.435-.333-.735-.603-1.55-.913-2.322-.417-1.048-1.16-1.558-2.343-1.532-1.966.044-3.932.012-5.963.012-.379 1.28-.742 2.557-1.136 3.833-.37 1.189-.969 1.569-2.276 1.42.435-1.323.846-2.633 1.292-3.933 1.682-4.96 3.353-9.922 5.082-14.865.212-.605.75-1.097 1.136-1.642L40.745 0zm-4.386 14.283h7.447c-1.37-3.526-2.723-6.998-4.076-10.465-.054-.136-.323-.333-.389-.296-.18.09-.32.246-.389.435-.874 3.423-1.726 6.85-2.593 10.326z"/>
        <path fill="#503863" d="M90.957 21c-.426-.08-.856-.133-1.288-.159-1.463 0-2.472-.605-2.959-2-.265-.758-.578-1.5-.845-2.26-.267-.76-.8-1.166-1.642-1.166-1.968.008-3.938-.018-5.905.027-.157.028-.304.092-.43.187-.128.095-.23.218-.3.36-.378 1.04-.675 2.11-.986 3.166-.356 1.21-.861 1.58-2.306 1.58.141-.46.267-.897.412-1.334l5.917-17.5c.063-.183.13-.366.193-.55.222-.643.64-1 1.363-1.026.723-.027 1.041.417 1.275 1 1.703 4.248 3.407 8.494 5.114 12.74.764 1.905 1.54 3.805 2.285 5.717.147.375.17.794.263 1.195l-.161.023zm-5.55-6.39c-1.382-3.548-2.734-7.02-4.087-10.485-.056-.143-.302-.358-.362-.333-.193.077-.35.225-.436.413-.237.822-.42 1.657-.629 2.487l-1.985 7.915 7.498.003zM141 4.333l-.365.779c-.257-.344-.458-.65-.698-.925-.601-.694-1.137-1.469-1.843-2.037-1.637-1.32-3.652-1.123-5.03.482-3.501 4.08-3.939 9.293-1.973 13.736 1.371 3.099 5.126 4.119 7.412 2.709.124-.048.256-.074.389-.077l.155.23c-.534.368-1.033.805-1.611 1.085-.636.306-1.342.465-2.018.688h-1.688l-1.476-.483c-1.612-.527-3.026-1.52-4.059-2.848-1.033-1.329-1.637-2.933-1.735-4.604-.165-2.639.268-5.281 1.268-7.735 1.324-3.265 4.075-4.58 7.448-4.786.992-.06 2.018.11 3.002.31 1.258.256 2.377.791 2.822 2.138v1.338z"/>
        <path fill="#4C3460" d="M92.647 21V2.102c0-1 .447-1.424 1.46-1.429 3.264-.018 6.529-.025 9.795 0 1.495.012 2.085.679 2.014 2.149-.017.346-.08.69-.142 1.215-1.732-2.5-4.335-2.417-6.809-2.679-.676-.071-1.342-.156-2.017-.178-.831-.027-1.372.372-1.384 1.135-.04 2.657-.015 5.313-.015 8.067h6.657c.259.775-.257.763-.659.771-1.378.024-2.757.037-4.135.012-1.563-.028-1.896.267-1.897 1.802 0 2.22-.019 4.44.01 6.666.008.667-.102 1.199-.857 1.374L92.648 21z"/>
        <path fill="#533D67" d="M122.065 21c0-6.333-.021-12.667 0-19 0-1.112.321-1.367 1.428-1.367.477 0 .954.039 1.493.064.019.273.049.515.049.756v17.829c0 .805-.264 1.436-1.105 1.711l-1.865.007z"/>
        <path fill="#0D326C" d="M71.514 20.322c-.155.018-.265.026-.373.043-2.156.35-2.494-.147-2.475-2.333.037-4.334.037-8.667.049-12.992-.022-.169-.056-.336-.102-.5-.192.372-.328.587-.42.82-1.822 4.53-3.62 9.068-5.475 13.585-.215.522-.632 1.105-1.118 1.348-1.175.592-2.128.095-2.535-1.158-1.436-4.459-2.87-8.918-4.303-13.378-.153-.508-.416-.977-.773-1.374-.298 2.208-.6 4.414-.903 6.617-.387 2.833-.76 5.667-1.183 8.488-.064.429-.338.834-.517 1.24l-.339-.106L51.71.357c.753 0 1.474-.029 2.197 0 .905.043 1.282.681 1.55 1.428 1.178 3.26 2.362 6.518 3.551 9.775.869 2.388 1.746 4.775 2.69 7.348.169-.371.284-.57.362-.778 1.998-5.262 3.995-10.525 5.99-15.788C68.8.362 69.337.082 71.523.508c-.009 6.577-.009 13.159-.009 19.814z"/>
        <path fill="#0E346D" d="M17.987 20.425V.557c.046-.032.097-.058.15-.077 2.38-.488 2.814-.127 2.808 2.217-.013 5.55 0 11.101 0 16.651v.467c3.55-.333 7.241.432 10.381-2.117.025.287.044.415.047.544.065 2.036-.072 2.18-2.128 2.181H18.94l-.953.002z"/>
    </g>
    <defs>
        <clipPath id="prefix__clip0">
            <path fill="#fff" d="M0 0H141V21H0z"/>
        </clipPath>
    </defs>
</svg>
