<svg xmlns="http://www.w3.org/2000/svg" width="21" height="20" fill="none" viewBox="0 0 21 20">
    <path fill="#BBB" d="M11.366.093C8.973-.236 6.542.312 4.522 1.635 2.502 2.96 1.028 4.968.374 7.293c-.654 2.325-.445 4.808.589 6.991 1.033 2.183 2.822 3.918 5.035 4.885-.06-.768-.005-1.541.163-2.293.185-.839 1.296-5.463 1.296-5.463-.221-.496-.332-1.034-.324-1.577 0-1.485.857-2.593 1.923-2.593.192-.003.381.036.557.113.175.077.332.191.459.334.127.143.222.312.279.495.056.183.072.376.047.566 0 .9-.578 2.262-.88 3.54-.06.234-.063.48-.011.716.052.236.16.456.313.643.153.188.348.336.57.434.22.098.461.142.703.13 1.898 0 3.17-2.43 3.17-5.3 0-2.2-1.457-3.849-4.143-3.849-.643-.025-1.284.081-1.884.311-.6.23-1.148.58-1.609 1.03-.46.447-.826.985-1.073 1.579-.247.593-.37 1.231-.364 1.874-.029.713.202 1.413.648 1.97.083.062.144.15.174.25.029.1.025.207-.012.304-.046.184-.162.623-.208.784-.01.055-.032.106-.065.15-.033.045-.076.081-.126.106-.05.024-.104.037-.16.037-.055 0-.11-.014-.159-.039-1.384-.554-2.036-2.077-2.036-3.816 0-2.847 2.384-6.255 7.154-6.255 3.796 0 6.32 2.777 6.32 5.747 0 3.91-2.177 6.848-5.394 6.848-.48.015-.958-.09-1.387-.309-.429-.217-.796-.54-1.067-.937 0 0-.578 2.316-.692 2.754-.233.757-.576 1.475-1.019 2.13.923.28 1.882.42 2.846.417 1.313.001 2.614-.257 3.828-.76 1.214-.502 2.316-1.239 3.245-2.168.928-.93 1.665-2.032 2.166-3.246.502-1.214.759-2.515.757-3.829C20 7.582 19.127 5.25 17.539 3.43 15.952 1.609 13.76.424 11.368.094h-.002z"/>
</svg>
