<svg xmlns="http://www.w3.org/2000/svg" width="24" height="24" fill="none" viewBox="0 0 24 24">
    <path fill="#979797" d="M12.002 3c-.607 0-1.238.65-1.223 1.2v7.2c-.01.634.543 1.2 1.223 1.2s1.233-.566 1.223-1.2V4.2c.02-.726-.616-1.2-1.223-1.2zM7.696 6c-.112.023-.221.061-.322.113-3.863 1.885-5.046 5.757-4.025 8.962C4.371 18.28 7.573 21 11.962 21c4.326 0 7.569-2.579 8.653-5.737 1.083-3.159-.075-6.989-4.025-9.113-.558-.305-1.363-.108-1.69.412-.327.52-.116 1.27.442 1.575 3.08 1.656 3.713 4.194 2.938 6.45-.774 2.257-3.018 4.125-6.318 4.125-3.317 0-5.535-1.98-6.278-4.312-.744-2.333-.06-4.858 2.817-6.263.487-.248.745-.831.587-1.327-.159-.496-.718-.852-1.271-.81-.04-.002-.081-.002-.121 0z"/>
</svg>
