<svg xmlns="http://www.w3.org/2000/svg" width="71" height="62" fill="none" viewBox="0 0 71 62">
    <path fill="#ED3833" d="M29.519 48.854H6.972v2.191H29.52v-2.19zM40.087 48.854H33.12v2.191h6.967v-2.19z"/>
    <path fill="#ED3833" d="M69.523 31.678l-9.942-5.609V20.9c0-2.279-1.644-4.12-3.68-4.12h-3.523L48.621 2.67c-.235-.964-.862-1.84-1.645-2.278-.782-.439-1.565-.526-2.348-.176L2.197 16.867c-1.331.526-2.27 2.016-2.192 3.681V55.603c0 2.278 1.644 4.118 3.679 4.118h48.46c1.487.964 3.21 1.666 5.088 2.191.157 0 .313.088.47.088.156 0 .313 0 .47-.088 12.29-3.155 12.447-15.424 12.447-15.511V33.606c0-.789-.391-1.578-1.096-1.928zm-24.738 1.928v1.14H1.962V28.96h48.772l-4.932 2.804c-.626.263-1.017 1.052-1.017 1.84zm.548-31.199c.391-.175.626 0 .86.088.314.175.549.526.627.964l3.601 13.408H8.146l37.187-14.46zM1.962 20.987v-.264c.078-.964.783-1.665 1.722-1.665H55.98c.939 0 1.722.877 1.722 1.928v4.294c-.313 0-.548.088-.861.263l-2.192 1.227H1.962v-5.784zM3.684 57.53c-.94 0-1.722-.877-1.722-1.928V36.935h42.823v11.13c0 .175.078.263.078.438 0 .088 0 .175.078.263 0 .175.078.35.078.613 0 .088 0 .088.079.176.078.263.156.525.235.876 0 .088.078.175.078.175.078.263.156.438.235.701 0 .088.078.176.078.35.078.176.157.44.235.614.078.088.078.263.156.35.079.176.157.44.313.614.079.088.157.263.157.35.078.176.235.44.313.614.078.088.157.263.235.35.157.264.313.44.47.702l.235.263c.235.35.47.701.783 1.051.234.263.47.614.782.877H3.684v.088zM68.662 46.4c0 .438-.157 10.604-10.96 13.408h-.078c-1.801-.438-3.367-1.14-4.776-2.103-6.028-4.032-6.185-11.042-6.185-11.305V33.693l10.96-6.222 10.96 6.135V46.4h.079z"/>
    <path fill="#ED3833" d="M55.275 46.75l-3.601-3.943-1.331 1.578 4.932 5.433 10.099-10.691-1.331-1.578-8.768 9.202z"/>
</svg>
