<svg xmlns="http://www.w3.org/2000/svg" width="24" height="24" fill="none" viewBox="0 0 24 24">
    <g clip-path="url(#a)">
        <path fill="#fff" d="M21.506 0H1.246C.562 0 0 .562 0 1.25v2.247c0 .687.561 1.25 1.247 1.25h20.197c.686 0 1.247-.563 1.247-1.25V1.25C22.753.562 22.192 0 21.507 0zm0 12.553H1.246c-.685 0-1.246.563-1.246 1.25v2.248c0 .687.561 1.249 1.247 1.249h20.197c.686 0 1.247-.562 1.247-1.25v-2.248c.062-.686-.499-1.249-1.184-1.249zm-8.851 6.308H1.247c-.686 0-1.247.562-1.247 1.25v2.248c0 .687.561 1.249 1.247 1.249h11.408c.685 0 1.246-.562 1.246-1.25V20.11c0-.687-.56-1.249-1.246-1.249zM22.753 6.308H1.247C.56 6.308 0 6.87 0 7.557v2.248c0 .687.561 1.25 1.247 1.25h21.506c.686 0 1.247-.563 1.247-1.25V7.557c0-.687-.561-1.25-1.247-1.25z"/>
    </g>
    <defs>
        <clipPath id="a">
            <path fill="#fff" d="M0 0h24v23.608H0z"/>
        </clipPath>
    </defs>
</svg>
