<svg xmlns="http://www.w3.org/2000/svg" width="141" height="22" fill="none" viewBox="0 0 141 22">
    <g clip-path="url(#prefix__clip0)">
        <path fill="#FD9002" d="M117.918 17.368h3.075c.09 0 .236.057.26.124.347.924 1.084 1.274 1.992 1.33 1.423.09 2.305-.657 2.451-2.135.069-.71.012-1.43.012-2.12-.288.328-.597.636-.925.923-1.432 1.107-3.621 1.069-5.093-.079-1.182-.921-1.801-2.172-2.069-3.612-.306-1.636-.2-3.239.457-4.783.806-1.897 2.49-3.015 4.455-2.945 1.088.04 2.279.433 3.186 1.781V4.256h3.411v11.721c.018.909-.127 1.813-.43 2.67-.707 1.897-2.073 2.977-4.056 3.266-1.356.198-2.688.076-3.953-.51-1.611-.75-2.506-2.041-2.778-3.783-.007-.046-.011-.093-.013-.14.004-.037.01-.075.018-.112zm7.884-7.19c-.075-.458-.177-.91-.307-1.355-.299-.843-.895-1.403-1.796-1.543-.408-.078-.83-.038-1.215.115-.386.154-.72.414-.963.751-.828 1.069-.812 3.003.018 4.079.21.282.483.511.799.668.315.157.662.237 1.014.234.353-.002.699-.088 1.012-.25.312-.162.582-.395.788-.681.439-.593.59-1.272.648-2.019h.002z"/>
        <path fill="#01223A" d="M86.169 21.962h-3.354v-7.126c-.079.074-.118.104-.158.142-1.474 1.796-3.923 1.832-5.574.735-1.309-.87-2.055-2.124-2.371-3.636-.407-1.925-.216-3.776.84-5.48 1.23-1.989 3.58-2.825 5.638-2.027.63.245 1.184.657 1.6 1.19V4.418h3.37l.009 17.544zm-8.194-11.627c-.026.59.106 1.174.383 1.695.42.756 1.053 1.21 1.927 1.249.418.032.837-.06 1.203-.265.366-.205.662-.514.853-.888.65-1.18.66-2.41-.02-3.579-.772-1.324-2.496-1.498-3.565-.398-.58.61-.77 1.369-.78 2.186z"/>
        <path fill="#02233B" d="M61.385 16.287h-3.372v-1.58c-.344.482-.78.892-1.281 1.207-1.74 1.024-4.081.605-5.452-.966-.873-1-1.305-2.188-1.47-3.478-.192-1.32-.054-2.667.402-3.92.633-1.644 1.7-2.845 3.48-3.204 1.699-.343 3.14.14 4.215 1.554.014.019.033.036.09.094V.545h3.388v15.742zm-3.374-5.939l.079-.02c-.127-.502-.193-1.03-.394-1.5-.373-.88-1.066-1.384-2.046-1.403-.438-.026-.874.084-1.249.313-.374.23-.669.57-.844.972-.27.527-.407 1.112-.395 1.704.011.592.17 1.171.46 1.687.168.317.41.589.705.793.295.205.635.336.99.382.356.047.718.007 1.056-.115.338-.122.641-.323.885-.586.57-.634.753-1.4.753-2.227z"/>
        <path fill="#FD9002" d="M113.302 5.836V.387h3.362v15.73h-3.355v-1.59c-.27.324-.561.629-.87.914-1.491 1.216-3.795 1.145-5.338-.144-1.075-.9-1.657-2.085-1.909-3.433-.335-1.809-.234-3.585.652-5.239.885-1.653 2.281-2.586 4.195-2.543.611-.002 1.214.143 1.758.423.544.279 1.014.684 1.369 1.181.029.035.06.066.136.15zm-4.829 4.32l-.076.023c.125.502.189 1.03.388 1.501.363.862 1.028 1.393 1.997 1.437 1.004.046 1.739-.428 2.163-1.31.241-.479.372-1.005.383-1.541.011-.536-.097-1.067-.317-1.556-.661-1.536-2.468-1.954-3.657-.863-.67.613-.874 1.429-.881 2.31z"/>
        <path fill="#01223A" d="M19.985 16.289V1.359c.029-.01.06-.016.09-.02 1.872 0 3.743 0 5.615.013.987-.016 1.958.244 2.806.75 1.256.777 1.868 1.951 2.024 3.382.124 1.12-.025 2.202-.602 3.193-.775 1.331-1.988 2.011-3.479 2.172-.917.1-1.848.056-2.775.075h-.316v5.363l-3.363.002zm3.372-8.293c.804 0 1.582.047 2.349-.014.766-.062 1.214-.541 1.348-1.287.057-.313.066-.633.029-.949-.101-.817-.543-1.307-1.357-1.407-.674-.082-1.361-.042-2.043-.056h-.326v3.713z"/>
        <path fill="#FD9003" d="M97.215 11.066c0 1.533 1.19 2.529 2.587 2.213.235-.047.456-.146.648-.29.191-.144.348-.33.459-.542.037-.086.102-.159.184-.205.082-.047.178-.065.271-.052.982.01 1.966 0 2.948 0h.33c-.14.7-.434 1.36-.86 1.933-1.232 1.65-2.91 2.308-4.929 2.14-1.84-.158-3.263-1.013-4.188-2.625-.742-1.293-.92-2.711-.807-4.175.06-1.098.405-2.16 1.003-3.083.99-1.473 2.411-2.197 4.153-2.301 1.544-.094 2.951.289 4.112 1.357 1.008.927 1.532 2.11 1.695 3.447.076.632.041 1.264.058 1.897 0 .213-.08.28-.3.28-2.339-.008-4.679 0-7.018 0l-.346.006zm4.22-2.055c.016-1.233-.915-2.077-2.2-2.022-1.066.046-2.055 1.054-1.963 2.022h4.163zm39.488 2.055h-7.59c-.063.866.485 1.882 1.35 2.164.949.316 1.852 0 2.359-.83.027-.048.064-.09.108-.124s.095-.057.148-.07c1.107-.013 2.214-.008 3.313 0 .042.005.083.014.123.026-.22.995-.731 1.901-1.469 2.604-1.581 1.473-3.456 1.799-5.475 1.222-2.019-.577-3.205-2.055-3.669-4.077-.355-1.554-.298-3.108.317-4.597.868-2.096 2.492-3.162 4.726-3.294 1.511-.09 2.892.3 4.037 1.34.958.871 1.472 1.984 1.69 3.244.137.79.148 1.598.032 2.392zm-7.606-2.055h4.184c.085-1.023-.718-1.908-1.809-2.011-1.246-.119-2.253.729-2.375 2.01z"/>
        <path fill="#01223B" d="M49.621 10.4c-.032 1.61-.443 3.09-1.559 4.298-1.206 1.306-2.748 1.84-4.494 1.766-1.869-.08-3.39-.854-4.427-2.442-.776-1.181-1.034-2.512-.995-3.905.038-1.315.356-2.556 1.151-3.626 1.258-1.693 2.995-2.372 5.05-2.228 2.097.149 3.674 1.162 4.626 3.069.47.962.632 2 .648 3.068zm-3.403-.043c-.057-.451-.142-.899-.253-1.34-.316-1.014-1.107-1.616-2.073-1.627-.966-.011-1.761.563-2.09 1.562-.342.981-.315 2.054.078 3.016.34.833.975 1.32 1.897 1.345.922.026 1.581-.398 2.006-1.188.287-.547.383-1.143.43-1.77l.005.002z"/>
        <path fill="#02233B" d="M70.376 4.421h3.377v11.856H70.38v-1.56c-.084.092-.114.122-.14.158-1.03 1.298-2.393 1.739-3.989 1.485-1.528-.246-2.556-1.169-3.069-2.591-.237-.639-.37-1.311-.395-1.992-.046-2.441-.019-4.883-.019-7.346h3.36v6.408c-.024.525.085 1.047.316 1.518.41.76 1.208 1.136 2.108 1.008.9-.128 1.534-.698 1.724-1.631.06-.312.091-.63.09-.948V4.75l.01-.329z"/>
        <path fill="#194584" d="M0 10.691l.829-.716-.823-.715.721-.632-.725-.632L9.412-.01l9.412 8.006-.727.633.722.632-.822.713.829.716-9.41 8.005L0 10.691zm2.432-1.348l6.982 5.939 6.98-5.94-6.981-5.938-6.981 5.939zm6.98 8.62l8.557-7.28-.411-.346-8.144 6.927-8.146-6.922-.413.348 8.556 7.273zm0-15.287l7.407 6.3.418-.343-7.824-6.655L1.59 8.639l.42.338 7.4-6.3zM1.167 8.27l8.245-7.012 8.249 7.015.308-.264L9.413.728.855 8.01l.314.26zm.525 1.706l7.721 6.567 7.718-6.567-.316-.26-7.403 6.299-7.406-6.298-.314.259zm-.118-.632l-.413-.348-.302.264.41.344.305-.26zm16.395-.084l-.316-.267-.405.355.309.256.412-.344z"/>
        <path fill="#03233C" d="M91.56 4.401h2.194v3.037h-2.186v4.682c0 .843.258 1.096 1.107 1.096h1.107v3.136c-.97-.052-1.927-.038-2.865-.17-1.393-.2-2.323-1.17-2.59-2.587-.088-.469-.135-.945-.14-1.422-.018-1.469 0-2.938 0-4.406V7.45H86.86V4.419h1.323V1.532h3.384l-.008 2.87z"/>
        <path fill="#02233C" d="M31.34 4.414h3.374v1.85c.873-1.166 1.927-1.945 3.44-1.982v3.86c-.297 0-.602-.02-.904 0-.41.013-.816.07-1.213.172-.914.289-1.23 1.038-1.289 1.91-.045.69-.03 1.384-.033 2.076v3.982H31.34V4.414z"/>
    </g>
    <defs>
        <clipPath id="prefix__clip0">
            <path fill="#fff" d="M0 0H141V22H0z"/>
        </clipPath>
    </defs>
</svg>
