<svg xmlns="http://www.w3.org/2000/svg" width="32" height="32" fill="none" viewBox="0 0 32 32">
    <g filter="url(#a)">
        <circle cx="15" cy="15" r="11.75" fill="#fff" stroke="#E1E1E1" stroke-width=".5"/>
        <path fill="#8CC6F7" d="M21.658 16.099a.98.98 0 0 0-1.332-.373l-2.85 1.605a.155.155 0 0 0-.074.098c-.05.203-.167.487-.442.684-.304.218-.716.264-1.218.135l-.008-.002-1.645-.51a.19.19 0 0 1 .113-.361l1.635.507.008.003c.386.097.687.07.895-.079.262-.188.308-.519.314-.567v-.005-.001-.002a.865.865 0 0 0-.626-.897l-.007-.002c-.012-.004-1.222-.399-1.993-.619a2.489 2.489 0 0 0-.663-.081c-.478 0-1.19.113-1.873.653l-2.835 2.293a.154.154 0 0 0-.026.214l1.535 2.027a.155.155 0 0 0 .218.03l1.977-1.523c.044-.034.104-.047.158-.034l3.194.755c.237.055.493.02.704-.1l4.469-2.517a.98.98 0 0 0 .372-1.331z"/>
        <path fill="#F2902F" d="M19.882 9h-5.836a.343.343 0 0 0-.343.343v1.563c0 .19.153.343.343.343h.128v3.317c0 .19.154.343.343.343h4.893c.19 0 .344-.154.344-.343v-3.317h.128c.19 0 .343-.154.343-.344V9.343A.343.343 0 0 0 19.882 9zm-2.196 3.064h-1.444a.275.275 0 0 1 0-.549h1.444a.275.275 0 0 1 0 .55zm1.853-1.502h-5.15v-.875h5.15v.875z"/>
    </g>
    <defs>
        <filter id="a" width="32" height="32" x="0" y="0" color-interpolation-filters="sRGB" filterUnits="userSpaceOnUse">
            <feFlood flood-opacity="0" result="BackgroundImageFix"/>
            <feColorMatrix in="SourceAlpha" values="0 0 0 0 0 0 0 0 0 0 0 0 0 0 0 0 0 0 127 0"/>
            <feOffset dx="1" dy="1"/>
            <feGaussianBlur stdDeviation="2"/>
            <feColorMatrix values="0 0 0 0 0.698039 0 0 0 0 0.67451 0 0 0 0 0.67451 0 0 0 0.4 0"/>
            <feBlend in2="BackgroundImageFix" result="effect1_dropShadow"/>
            <feBlend in="SourceGraphic" in2="effect1_dropShadow" result="shape"/>
        </filter>
    </defs>
</svg>
