<svg xmlns="http://www.w3.org/2000/svg" width="61" height="62" fill="none" viewBox="0 0 61 62">
    <path fill="#ED3833" d="M33.907 31.044c-.937-6.73-6.13-11.737-12.608-11.737-7.164 0-12.775 6.116-12.775 13.923v.703c-.004.045-.013.088-.013.135V47.85c-3.2-.239-5.763-3.242-5.763-6.898 0-2.51 1.217-4.826 3.176-6.046.663-.413.902-1.348.532-2.092-.369-.742-1.205-1.008-1.869-.596C1.757 33.981 0 37.328 0 40.952c0 5.512 4.005 9.996 8.929 9.996.305 0 .615-.027.924-.063.011 0 .02.003.031.003.044 0 .085-.009.129-.014l.008-.001h.003c.692-.08 1.235-.727 1.235-1.523v-13.6c.003-.044.012-.087.012-.134V33.23c0-6.183 4.31-10.848 10.028-10.848 5.717 0 10.027 4.664 10.027 10.848v.637c-.008.066-.017.132-.017.202V48.92c-.003.04-.011.079-.011.119v3.46c0 2.364-1.475 4.014-3.585 4.014h-1.85c-.014 0-.026.003-.04.005-.516-1.508-1.813-2.584-3.339-2.584h-2.353c-1.976 0-3.584 1.8-3.584 4.013 0 2.212 1.608 4.013 3.584 4.013h2.353c1.457 0 2.709-.982 3.27-2.384.036.005.07.014.108.014h1.851c3.67 0 6.332-2.983 6.332-7.09v-1.504c4.734-.241 8.52-4.616 8.52-9.973 0-5.41-3.86-9.818-8.658-9.98zm-11.423 27.84h-2.353c-.453 0-.837-.429-.837-.936 0-.508.384-.938.837-.938h2.353c.454 0 .838.43.838.938 0 .507-.384.937-.838.937zM34.056 47.92V35.818c.009-.067.018-.133.018-.202V34.13c3.205.252 5.744 3.244 5.744 6.895 0 3.658-2.548 6.653-5.762 6.896z"/>
    <path fill="#ED3833" d="M40.05 0c-8.646 0-16.29 5.815-19.476 14.814-.28.789.065 1.682.77 1.996.706.312 1.504-.075 1.784-.863 2.767-7.819 9.41-12.87 16.922-12.87 10.038 0 18.203 9.14 18.203 20.376 0 8.42-4.726 16.08-11.76 19.059-.71.3-1.067 1.188-.799 1.982.208.614.73.994 1.285.994.161 0 .327-.033.486-.1C55.561 41.959 61 33.143 61 23.453 61 10.52 51.603 0 40.05 0z"/>
    <path fill="#ED3833" d="M41.08 8.314c-.758 0-1.373.69-1.373 1.538V22.54c0 .07.01.137.018.206-.066.489.078 1.004.428 1.363l6.482 6.683c.264.272.596.406.93.406.371 0 .74-.167 1.011-.496.514-.626.478-1.598-.08-2.173L42.455 22.3V9.852c0-.85-.615-1.538-1.374-1.538z"/>
</svg>
