<svg xmlns="http://www.w3.org/2000/svg" width="141" height="118" fill="none" viewBox="0 0 141 118">
    <path fill="url(#prefix__paint0_linear)" d="M24.33 95.964c-3.948-7.588-6.02-16.017-6.037-24.575 0-29.204 23.62-52.89 52.749-52.89 14.742 0 28.24 5.877 38.363 16.562l-4.44 4.096c-8.881-9.438-20.958-14.602-33.923-14.602-25.754 0-46.712 21.012-46.712 46.834 0 7.657 1.778 15.137 5.33 21.726l-5.33 2.849z"/>
    <path fill="url(#prefix__paint1_linear)" d="M19.924 106.115C12.976 95.751 9.236 83.777 9.236 71.268c.178-34.133 27.79-61.831 61.992-61.831 9.913.002 19.681 2.39 28.485 6.96 8.803 4.57 16.384 11.192 22.107 19.309l-4.988 3.574c-5.143-7.34-11.971-13.33-19.908-17.466-7.937-4.137-16.75-6.298-25.696-6.3-30.818 0-55.758 25.017-55.758 55.932 0 11.258 3.386 22.16 9.62 31.452l-5.166 3.217z"/>
    <path fill="url(#prefix__paint2_linear)" d="M16.56 117.156C5.875 104.298 0 88.046 0 71.436 0 32.147 31.871 0 71.223 0c26.172 0 50.032 14.287 62.496 37.325l-5.342 2.859c-5.574-10.325-13.829-18.946-23.89-24.951-10.062-6.005-21.555-9.17-33.264-9.16-35.968 0-65.17 29.288-65.17 65.364 0 15.359 5.343 30.182 15.136 41.79l-4.63 3.929z"/>
    <path fill="#000" d="M52.02 58.462v4.63H49v16.384h-4.974V63.093H41.54V58.46h2.486v-3.74c.712 1.427 3.552 1.782 4.974 3.74h3.02zm16.517 21.014V68.791c0-3.027-.532-6.41-4.263-6.41-3.73 0-4.264 3.56-4.264 6.41v10.685h-4.972v-27.96h4.974v8.37c1.598-1.425 3.374-2.138 5.328-2.138 3.02 0 6.038 1.782 7.284 4.454.71 1.604.886 3.56.886 5.342v11.932h-4.973zm13.321-11.754v11.753h-5.151V58.462h4.617v1.96c1.245-1.783 2.31-2.672 4.619-2.672h.355v4.807c-3.197.18-4.44 1.96-4.44 5.165zm7.102-11.574v-4.632h4.974v4.632H88.96zm0 23.327V58.463h4.974v21.015h-4.972l-.002-.003zm19.893.18h-3.906l-8.526-21.016h5.506l5.151 13.89 4.796-13.89h5.506l-8.527 21.015zm20.958-22.083c-1.244 0-2.485.178-3.551.534-4.44 1.602-7.461 5.876-7.461 10.863 0 5.52 3.906 9.972 9.057 11.041 2.842-1.248 5.151-3.385 6.396-6.59 0-.177-.179-.177-.179 0-1.066 1.425-2.487 2.138-4.262 2.138-2.664 0-4.974-1.96-5.506-4.453h16.34c.178-.89.355-1.603.355-2.492-.355-5.878-5.151-11.04-11.189-11.04zm-5.861 9.617c.71-2.85 3.019-4.987 6.038-4.987 1.245 0 2.31.357 3.198.889 1.242.891 2.308 2.316 2.663 3.918H123.95v.18z"/>
    <path fill="url(#prefix__paint3_linear)" d="M139.937 72.886c-1.244 4.273-5.684 7.301-10.123 7.301-.534 0-1.066 0-1.599-.178.355-.178.71-.178 1.065-.357 2.309-1.068 3.907-2.67 4.973-4.985.533-1.248 1.777-1.781 3.019-1.781h2.665z"/>
    <path fill="url(#prefix__paint4_linear)" d="M49.001 51.696v5.342c-1.42-1.96-4.44-2.316-4.972-3.74-.179-.178-.179-.356-.179-.712V47.42c1.776-.533 5.151 1.604 5.151 4.275z"/>
    <path fill="#48A64C" d="M100.151 91.763v-1.246c-.355.356-.534.712-.887.89-.715.365-1.508.549-2.31.535-2.486 0-4.262-1.96-4.262-4.453 0-2.492 1.774-4.452 4.44-4.452 1.066 0 2.485.535 3.019 1.425v-1.245h1.421v8.37h-1.421v.175zm-3.019-7.122c-1.6 0-2.842 1.425-2.842 3.027 0 1.603 1.242 3.027 2.842 3.027 1.598 0 2.842-1.424 2.842-3.027.177-1.602-1.066-3.027-2.842-3.027zm10.478 10.506c-1.243 0-2.132-.358-3.019-1.249-.534-.531-.71-.71-1.066-1.422h1.777c.532.889 1.421 1.246 2.485 1.246 1.776 0 3.019-1.069 3.019-2.849v-.18c-.361.453-.821.817-1.344 1.064-.524.247-1.096.37-1.675.361-.584.006-1.164-.105-1.705-.327-.542-.222-1.033-.55-1.447-.964-.413-.414-.74-.907-.961-1.45-.221-.543-.332-1.124-.326-1.71 0-2.494 2.132-4.45 4.617-4.45 1.245 0 2.132.356 3.019 1.245v-1.069h1.245v7.48c0 2.67-2.132 4.274-4.619 4.274zm0-10.507c-1.598 0-3.019 1.424-3.019 3.027 0 1.602 1.243 3.027 2.842 3.027 1.775 0 3.019-1.425 3.019-3.205.177-1.603-1.244-2.85-2.842-2.85zm8.17 2.673v4.63h-1.598v-8.37h1.598v.711c.532-.712 1.244-.89 2.132-.89v1.603c-1.6 0-2.132.712-2.132 2.316zm3.376-4.81v-1.781h1.598V82.5h-1.598v.004zm0 9.261v-8.37h1.598v8.37h-1.598zm7.279.354c-2.485 0-4.26-1.958-4.26-4.451 0-2.494 1.774-4.452 4.26-4.452 1.778 0 3.731 1.247 4.087 3.027h-1.777c-.532-1.069-1.244-1.602-2.31-1.602-1.596 0-2.84 1.424-2.84 3.027 0 1.604 1.065 3.027 2.665 3.027 1.064 0 1.953-.712 2.485-1.603h1.777c-.259.882-.799 1.655-1.536 2.202-.738.546-1.634.836-2.551.825z"/>
    <defs>
        <linearGradient id="prefix__paint0_linear" x1="-48.133" x2="114.689" y1="69.856" y2="48.006" gradientUnits="userSpaceOnUse">
            <stop stop-color="#9ACB55"/>
            <stop offset="1" stop-color="#0D9A49"/>
        </linearGradient>
        <linearGradient id="prefix__paint1_linear" x1="-48.275" x2="115.035" y1="70.169" y2="48.243" gradientUnits="userSpaceOnUse">
            <stop stop-color="#9ACB55"/>
            <stop offset="1" stop-color="#0D9A49"/>
        </linearGradient>
        <linearGradient id="prefix__paint2_linear" x1="-48.146" x2="115.086" y1="70.673" y2="48.76" gradientUnits="userSpaceOnUse">
            <stop stop-color="#9ACB55"/>
            <stop offset="1" stop-color="#0D9A49"/>
        </linearGradient>
        <linearGradient id="prefix__paint3_linear" x1="128.167" x2="139.865" y1="76.568" y2="76.568" gradientUnits="userSpaceOnUse">
            <stop stop-color="#9ACB55"/>
            <stop offset="1" stop-color="#0D9A49"/>
        </linearGradient>
        <linearGradient id="prefix__paint4_linear" x1="43.772" x2="48.986" y1="52.195" y2="52.195" gradientUnits="userSpaceOnUse">
            <stop stop-color="#9ACB55"/>
            <stop offset="1" stop-color="#0D9A49"/>
        </linearGradient>
    </defs>
</svg>
