<svg xmlns="http://www.w3.org/2000/svg" width="95" height="56" fill="none" viewBox="0 0 95 56">
    <path fill="#ED3833" d="M14.376 30.37H1.174c-.65 0-1.174.587-1.174 1.313 0 .727.525 1.314 1.174 1.314h13.202c.649 0 1.173-.587 1.173-1.314 0-.726-.524-1.313-1.173-1.313zM12.917 40.474h-1.359c-.649 0-1.173.587-1.173 1.313 0 .727.524 1.314 1.173 1.314h1.36c.648 0 1.173-.587 1.173-1.314 0-.726-.525-1.313-1.174-1.313z"/>
    <path fill="#ED3833" d="M94.207 32.559L82.779 18.538H69.172V9.403H39.987C37.777 3.87 32.824 0 27.07 0c-7.803 0-14.153 7.107-14.153 15.843 0 8.13 5.502 14.84 12.555 15.734v8.898h-8.808c-.649 0-1.174.587-1.174 1.313 0 .727.525 1.314 1.174 1.314h8.808v7.333h5.487C31.362 53.574 33.755 56 36.666 56c2.913 0 5.306-2.428 5.71-5.565H75.18c.404 3.139 2.797 5.565 5.71 5.565 2.911 0 5.305-2.428 5.708-5.565h7.606V32.558h.002zM15.263 15.842c0-7.287 5.296-13.216 11.806-13.216 6.51 0 11.806 5.929 11.806 13.216 0 7.287-5.297 13.216-11.806 13.216-6.51 0-11.806-5.93-11.806-13.216zm21.403 37.53c-1.899 0-3.444-1.73-3.444-3.858 0-2.124 1.544-3.854 3.444-3.854s3.446 1.729 3.446 3.854c0 2.128-1.545 3.857-3.446 3.857zm30.159-5.566H42.229c-.675-2.742-2.9-4.772-5.562-4.772-2.661 0-4.885 2.03-5.56 4.773h-3.288V31.64c7.454-.44 13.403-7.348 13.403-15.8 0-1.317-.161-2.588-.431-3.811h26.035V47.805h-.001zm14.067 5.565c-1.9 0-3.445-1.729-3.445-3.857 0-2.124 1.544-3.854 3.445-3.854 1.899 0 3.444 1.729 3.444 3.854 0 2.128-1.545 3.857-3.444 3.857zm10.968-5.565h-5.408c-.675-2.742-2.9-4.772-5.56-4.772-2.663 0-4.887 2.03-5.561 4.773h-6.16V21.163h12.572L91.86 33.577v14.23zM3.584 20.614h6.755c.649 0 1.173-.588 1.173-1.314 0-.726-.524-1.313-1.173-1.313H3.584c-.649 0-1.174.587-1.174 1.314 0 .725.525 1.313 1.174 1.313z"/>
    <path fill="#ED3833" d="M26.85 17.74c.065.049.12.11.19.143.142.067.296.104.458.104h6.755c.65 0 1.174-.588 1.174-1.314 0-.726-.525-1.313-1.174-1.313h-5.581V5.33c0-.726-.525-1.314-1.174-1.314-.647 0-1.173.588-1.173 1.314v11.342c0 .182.033.355.093.513.029.08.084.14.127.213.041.068.072.145.122.203.05.058.122.092.184.138z"/>
</svg>
