<svg xmlns="http://www.w3.org/2000/svg" width="21" height="17" fill="none" viewBox="0 0 21 17">
    <path fill="#fff" d="M20.908 2.018a8.6 8.6 0 0 1-2.464.675A4.304 4.304 0 0 0 20.33.319c-.841.501-1.763.852-2.724 1.042a4.29 4.29 0 0 0-7.31 3.912A12.18 12.18 0 0 1 1.456.79a4.275 4.275 0 0 0-.581 2.157 4.29 4.29 0 0 0 1.908 3.571A4.275 4.275 0 0 1 .84 5.982v.053a4.293 4.293 0 0 0 3.441 4.206 4.318 4.318 0 0 1-1.938.074 4.293 4.293 0 0 0 4.007 2.98A8.61 8.61 0 0 1 0 15.072 12.134 12.134 0 0 0 6.575 17c7.891 0 12.206-6.537 12.206-12.206 0-.185-.005-.372-.013-.554a8.714 8.714 0 0 0 2.14-2.22v-.002z"/>
</svg>
