<svg xmlns="http://www.w3.org/2000/svg" width="20" height="20" fill="none" viewBox="0 0 20 20">
    <path fill="#BBB" d="M10 0c2.717 0 3.056.01 4.122.06 1.065.05 1.79.217 2.428.465.66.254 1.216.598 1.772 1.153.509.5.902 1.105 1.153 1.772.247.637.415 1.363.465 2.428.047 1.066.06 1.405.06 4.122 0 2.717-.01 3.056-.06 4.122-.05 1.065-.218 1.79-.465 2.428-.25.668-.644 1.273-1.153 1.772-.5.508-1.105.902-1.772 1.153-.637.247-1.363.415-2.428.465-1.066.047-1.405.06-4.122.06-2.717 0-3.056-.01-4.122-.06-1.065-.05-1.79-.218-2.428-.465-.668-.25-1.272-.644-1.772-1.153-.509-.5-.902-1.104-1.153-1.772-.248-.637-.415-1.363-.465-2.428C.013 13.056 0 12.717 0 10c0-2.717.01-3.056.06-4.122.05-1.066.217-1.79.465-2.428.25-.668.644-1.273 1.153-1.772.5-.509 1.104-.902 1.772-1.153C4.088.277 4.812.11 5.878.06 6.944.013 7.283 0 10 0zm0 5c-1.326 0-2.598.527-3.536 1.464C5.527 7.402 5 8.674 5 10s.527 2.598 1.464 3.536C7.402 14.473 8.674 15 10 15s2.598-.527 3.536-1.464C14.473 12.598 15 11.326 15 10s-.527-2.598-1.464-3.536C12.598 5.527 11.326 5 10 5zm6.5-.25c0-.332-.132-.65-.366-.884-.235-.234-.553-.366-.884-.366-.332 0-.65.132-.884.366-.234.235-.366.552-.366.884 0 .332.132.65.366.884.235.234.553.366.884.366.332 0 .65-.132.884-.366.234-.235.366-.552.366-.884zM10 7c.796 0 1.559.316 2.121.879C12.684 8.44 13 9.204 13 10s-.316 1.559-.879 2.121C11.56 12.684 10.796 13 10 13s-1.559-.316-2.121-.879C7.316 11.56 7 10.796 7 10s.316-1.559.879-2.121C8.44 7.316 9.204 7 10 7z"/>
</svg>
