<svg xmlns="http://www.w3.org/2000/svg" width="21" height="17" fill="none" viewBox="0 0 21 17">
    <path fill="#BBB" d="M20.908 2.018c-.784.346-1.614.574-2.464.675.896-.536 1.567-1.38 1.887-2.374-.841.501-1.763.852-2.724 1.042C16.96.67 16.105.21 15.173.057c-.933-.154-1.89.004-2.724.45-.834.447-1.497 1.156-1.886 2.018-.389.861-.482 1.827-.266 2.748-1.705-.086-3.374-.529-4.897-1.301C3.877 3.2 2.533 2.116 1.456.79c-.382.655-.582 1.4-.581 2.157 0 1.488.757 2.802 1.908 3.571-.681-.021-1.347-.205-1.943-.536v.053c0 .99.343 1.95.97 2.717.627.767 1.5 1.293 2.471 1.49-.632.17-1.295.196-1.938.073.274.853.807 1.599 1.526 2.133.718.534 1.586.83 2.481.847-.89.699-1.908 1.216-2.998 1.52-1.09.305-2.229.392-3.352.257 1.96 1.26 4.244 1.93 6.575 1.928 7.891 0 12.206-6.537 12.206-12.206 0-.185-.005-.372-.013-.554.84-.607 1.565-1.36 2.14-2.22v-.002z"/>
</svg>
